<?xml version="1.0" encoding="UTF-8"?>
<svg id="_图层_1" xmlns="http://www.w3.org/2000/svg" version="1.1" viewBox="0 0 44.300663 168.8680878">
  <!-- Generator: Adobe Illustrator 30.0.0, SVG Export Plug-In . SVG Version: 2.1.1 Build 123)  -->
  <path d="M43.0624161,107.3678432l-1.3217773-.7119141c-.1943359-.1046143-.4404297-.0252686-.5361328.1737061-2.2998047,4.7824707-3.5947266,9.84375-4.7861328,14.9736328-2.2998047,10.3964767-3.4160156,21.1494064-3.9287109,31.886467-.1411133.060791-.2885742.0698242-.4404297.0256348C30.9628048,102.5245815,26.3490353,51.5377651,22.364172.509812c-.0166016-.2116699-.2011719-.369751-.4130859-.3532715l-1.4780273.1157227c-.2099609.0163574-.3676758.1987305-.3535156.4088135,2.8320312,42.1120595,5.3540039,84.2658681,6.7583008,126.4454336.1479492,4.7502365.269043,9.5029221.3701172,14.2543869-.1245117.0090332-.2485352.0014648-.3710938-.0258789-.1020508-1.2260742-.2099609-2.442627-.3320312-3.6330566-1.1147461-10.3972168-2.4125977-20.9328613-6.0961914-30.7930908-.078125-.2084961-.3183594-.3093262-.5219727-.2197266l-1.3540039.5955811c-.184082.0810547-.2729492.2836914-.2050781.4731445.3657227,1.0187988.6904297,2.1730957.9790039,3.2780762,1.9238281,7.7744141,2.8735352,15.7416992,3.3916016,23.7370605.0288086.447998-.6000977.5769043-.7441406.1518555-3.9819336-11.7531738-10.1640625-22.7363281-18.6196289-31.708252-.1513672-.1605225-.4082031-.1618652-.5620117-.0036621l-1.0351562,1.0654297c-.1401367.144165-.1435547.3691406-.0092773.5183105,3.7509766,4.154541,6.9399414,9.0273438,9.6352539,14.0251465,7.2709961,13.421875,10.9228516,28.6831055,11.1650391,43.8994141-.0141602,1.3212891-.0439453,4.4848633-.0600586,6.137207-.0019531.2099609.1645508.3813477.3745117.3867188,0,0,7.9865821-.0204084,13.8330097-.0410156.2138672-.005127.3769531-.1833496.3701172-.3969727l-.2460938-7.447998c-.1113281-7.5881348-.0444336-15.9577637.5673828-23.4836426.8608398-10.1398926,2.0288086-20.560791,5.8271484-30.0517578.0717773-.1800537-.0009766-.3840332-.171875-.4759445Z"/>
</svg>